<?xml version="1.0" encoding="UTF-8"?>
<svg width="58px" height="42px" viewBox="0 0 58 42" version="1.1" xmlns="http://www.w3.org/2000/svg" xmlns:xlink="http://www.w3.org/1999/xlink">
    <!-- Generator: Sketch 50.2 (55047) - http://www.bohemiancoding.com/sketch -->
    <title>credit-card</title>
    <desc>Created with Sketch.</desc>
    <defs></defs>
    <g id="Page-1" stroke="none" stroke-width="1" fill="none" fill-rule="evenodd">
        <g id="Icon-Boxes" transform="translate(-594.000000, -553.000000)" fill-rule="nonzero">
            <g id="2-/-New" transform="translate(194.000000, 491.000000)">
                <g id="Group-4" transform="translate(0.000000, 20.000000)">
                    <g id="Group-34-Copy-3" transform="translate(360.000000, 0.000000)">
                        <g id="credit-card" transform="translate(40.000000, 42.000000)">
                            <path d="M54.783,42 L3.217,42 C1.439,42 0,40.56 0,38.783 L0,3.217 C0,1.44 1.439,0 3.217,0 L54.783,0 C56.56,0 58,1.44 58,3.217 L58,38.783 C58,40.56 56.56,42 54.783,42" id="XMLID_128_" fill="#DBEAF5"></path>
                            <path d="M15,28 L6,28 C5.447,28 5,28.448 5,29 C5,29.552 5.447,30 6,30 L15,30 C15.553,30 16,29.552 16,29 C16,28.448 15.553,28 15,28" id="XMLID_127_" fill="#7A693C"></path>
                            <path d="M29,29 C29,28.448 28.553,28 28,28 L19,28 C18.447,28 18,28.448 18,29 C18,29.552 18.447,30 19,30 L28,30 C28.553,30 29,29.552 29,29" id="XMLID_126_" fill="#7A693C"></path>
                            <path d="M7,33 L6,33 C5.447,33 5,33.448 5,34 C5,34.552 5.447,35 6,35 L7,35 C7.553,35 8,34.552 8,34 C8,33.448 7.553,33 7,33" id="XMLID_125_" fill="#7A693C"></path>
                            <path d="M13,33 L11,33 C10.447,33 10,33.448 10,34 C10,34.552 10.447,35 11,35 L13,35 C13.553,35 14,34.552 14,34 C14,33.448 13.553,33 13,33" id="XMLID_124_" fill="#7A693C"></path>
                            <path d="M18,33 L17,33 C16.447,33 16,33.448 16,34 C16,34.552 16.447,35 17,35 L18,35 C18.553,35 19,34.552 19,34 C19,33.448 18.553,33 18,33" id="XMLID_123_" fill="#7A693C"></path>
                            <path d="M24,33 L22,33 C21.447,33 21,33.448 21,34 C21,34.552 21.447,35 22,35 L24,35 C24.553,35 25,34.552 25,34 C25,33.448 24.553,33 24,33" id="XMLID_122_" fill="#7A693C"></path>
                            <path d="M27.29,33.29 C27.109,33.48 27,33.74 27,34 C27,34.26 27.109,34.52 27.29,34.71 C27.479,34.89 27.74,35 28,35 C28.26,35 28.519,34.89 28.71,34.71 C28.89,34.52 29,34.26 29,34 C29,33.74 28.89,33.48 28.71,33.29 C28.33,32.92 27.648,32.92 27.29,33.29" id="XMLID_121_" fill="#7A693C"></path>
                            <path d="M46,31 C46,34.314 43.314,37 40,37 C36.686,37 34,34.314 34,31 C34,27.686 36.686,25 40,25 C43.314,25 46,27.686 46,31" id="XMLID_120_" fill="#E74C3D"></path>
                            <path d="M53,31 C53,34.314 50.314,37 47,37 C43.686,37 41,34.314 41,31 C41,27.686 43.686,25 47,25 C50.314,25 53,27.686 53,31" id="XMLID_119_" fill="#F0C41B"></path>
                            <path d="M20.745,20 L7.255,20 C6.563,20 6,19.438 6,18.745 L6,9.255 C6,8.562 6.563,8 7.255,8 L20.745,8 C21.438,8 22,8.562 22,9.255 L22,18.745 C22,19.438 21.438,20 20.745,20" id="XMLID_118_" fill="#F0C41B"></path>
                            <path d="M20.745,21 L7.255,21 C6.012,21 5,19.988 5,18.745 L5,9.255 C5,8.012 6.012,7 7.255,7 L20.745,7 C21.988,7 23,8.012 23,9.255 L23,18.745 C23,19.988 21.988,21 20.745,21 Z M7.255,9 C7.113,9 7,9.114 7,9.255 L7,18.745 C7,18.886 7.113,19 7.255,19 L20.745,19 C20.886,19 21,18.886 21,18.745 L21,9.255 C21,9.114 20.886,9 20.745,9 L7.255,9 Z" id="XMLID_115_" fill="#F3D55C"></path>
                            <path d="M22,9.255 C22,8.562 21.438,8 20.745,8 L16,8 L13.255,8 C12.561,8 12,8.562 12,9.255 L12,12 L12,18.745 C12,19.438 12.561,20 13.255,20 L14.745,20 C15.438,20 16,19.438 16,18.745 L16,13.255 C16,12.562 16.562,12 17.255,12 L20.745,12 C21.438,12 22,11.438 22,10.745 L22,9.255 Z" id="XMLID_114_" fill="#F0C41B"></path>
                            <path d="M14.745,21 L13.255,21 C12.012,21 11,19.988 11,18.745 L11,9.255 C11,8.012 12.012,7 13.255,7 L20.745,7 C21.988,7 23,8.012 23,9.255 L23,10.745 C23,11.988 21.988,13 20.745,13 L17.255,13 C17.113,13 17,13.114 17,13.255 L17,18.745 C17,19.988 15.988,21 14.745,21 Z M13.255,9 C13.113,9 13,9.114 13,9.255 L13,18.745 C13,18.886 13.113,19 13.255,19 L14.745,19 C14.886,19 15,18.886 15,18.745 L15,13.255 C15,12.012 16.012,11 17.255,11 L20.745,11 C20.886,11 21,10.886 21,10.745 L21,9.255 C21,9.114 20.886,9 20.745,9 L13.255,9 Z" id="XMLID_111_" fill="#F3D55C"></path>
                            <path d="M16,16 L22,16" id="XMLID_110_" fill="#F0C41B"></path>
                            <path d="M22,17 L16,17 C15.447,17 15,16.552 15,16 C15,15.448 15.447,15 16,15 L22,15 C22.553,15 23,15.448 23,16 C23,16.552 22.553,17 22,17" id="XMLID_109_" fill="#F3D55C"></path>
                            <path d="M12,12 L6,12" id="XMLID_108_" fill="#F0C41B"></path>
                            <path d="M12,13 L6,13 C5.447,13 5,12.552 5,12 C5,11.448 5.447,11 6,11 L12,11 C12.553,11 13,11.448 13,12 C13,12.552 12.553,13 12,13" id="XMLID_107_" fill="#F3D55C"></path>
                            <path d="M12,16 L6,16" id="XMLID_106_" fill="#F0C41B"></path>
                            <path d="M12,17 L6,17 C5.447,17 5,16.552 5,16 C5,15.448 5.447,15 6,15 L12,15 C12.553,15 13,15.448 13,16 C13,16.552 12.553,17 12,17" id="XMLID_105_" fill="#F3D55C"></path>
                        </g>
                    </g>
                </g>
            </g>
        </g>
    </g>
</svg>